<svg width="30" height="20" viewBox="0 0 30 20" fill="none" xmlns="http://www.w3.org/2000/svg">
<rect opacity="0.3" width="30" height="19" rx="9.5" fill="#EBEBEB"/>
<g filter="url(#filter0_dd_0_1927)">
<path fill-rule="evenodd" clip-rule="evenodd" d="M20.4545 17.6818C24.9732 17.6818 28.6363 14.0187 28.6363 9.5C28.6363 4.98131 24.9732 1.31818 20.4545 1.31818C15.9358 1.31818 12.2727 4.98131 12.2727 9.5C12.2727 14.0187 15.9358 17.6818 20.4545 17.6818Z" fill="#2196F3"/>
<path d="M20.4543 1.56818C24.8349 1.56818 28.3859 5.11928 28.386 9.49982C28.386 13.8804 24.835 17.4315 20.4543 17.4315C16.0738 17.4314 12.5227 13.8804 12.5227 9.49982C12.5228 5.11934 16.0739 1.56828 20.4543 1.56818Z" stroke="url(#paint0_linear_0_1927)" stroke-width="0.5"/>
<path d="M20.4543 1.56818C24.8349 1.56818 28.3859 5.11928 28.386 9.49982C28.386 13.8804 24.835 17.4315 20.4543 17.4315C16.0738 17.4314 12.5227 13.8804 12.5227 9.49982C12.5228 5.11934 16.0739 1.56828 20.4543 1.56818Z" stroke="url(#paint1_linear_0_1927)" stroke-width="0.5"/>
</g>
<defs>
<filter id="filter0_dd_0_1927" x="11.2727" y="0.318184" width="18.3635" height="19.3636" filterUnits="userSpaceOnUse" color-interpolation-filters="sRGB">
<feFlood flood-opacity="0" result="BackgroundImageFix"/>
<feColorMatrix in="SourceAlpha" type="matrix" values="0 0 0 0 0 0 0 0 0 0 0 0 0 0 0 0 0 0 127 0" result="hardAlpha"/>
<feOffset dy="1"/>
<feGaussianBlur stdDeviation="0.5"/>
<feColorMatrix type="matrix" values="0 0 0 0 0 0 0 0 0 0 0 0 0 0 0 0 0 0 0.237602 0"/>
<feBlend mode="normal" in2="BackgroundImageFix" result="effect1_dropShadow_0_1927"/>
<feColorMatrix in="SourceAlpha" type="matrix" values="0 0 0 0 0 0 0 0 0 0 0 0 0 0 0 0 0 0 127 0" result="hardAlpha"/>
<feOffset/>
<feGaussianBlur stdDeviation="0.5"/>
<feColorMatrix type="matrix" values="0 0 0 0 0 0 0 0 0 0 0 0 0 0 0 0 0 0 0.12 0"/>
<feBlend mode="normal" in2="effect1_dropShadow_0_1927" result="effect2_dropShadow_0_1927"/>
<feBlend mode="normal" in="SourceGraphic" in2="effect2_dropShadow_0_1927" result="shape"/>
</filter>
<linearGradient id="paint0_linear_0_1927" x1="12.3528" y1="1.31818" x2="12.3528" y2="17.5217" gradientUnits="userSpaceOnUse">
<stop stop-opacity="0.01"/>
<stop offset="0.8" stop-opacity="0.02"/>
<stop offset="1" stop-opacity="0.04"/>
</linearGradient>
<linearGradient id="paint1_linear_0_1927" x1="12.2727" y1="1.31818" x2="12.2727" y2="17.6818" gradientUnits="userSpaceOnUse">
<stop stop-color="white" stop-opacity="0.12"/>
<stop offset="0.2" stop-color="white" stop-opacity="0.06"/>
<stop offset="1" stop-color="white" stop-opacity="0.01"/>
</linearGradient>
</defs>
</svg>
